# xmcd
#
# Track frame offsets: 
#        300
#        18627
#        47123
#        66664
#        89781
#        115948
#        140600
#        162482
#        187002
#        219909
#
# Disc length: 3664 seconds
#
# Revision: 0
# Processed by: cddbd v1.5.2PL0 Copyright (c) Steve Scherf et al.
# Submitted via: ExactAudioCopy v1.0b1
#
DISCID=a00e4c0a
DTITLE=Blindside Blues Band - The Blues Is Evil Smokehouse Sessions Vo
DTITLE=l. Two
DYEAR=2010
DGENRE=Blues Rock
TTITLE0=Evil
TTITLE1=Mojo Highway
TTITLE2=King Of The Sky
TTITLE3=I Ain't Superstitious
TTITLE4=Working So Hard
TTITLE5=Smokehouse Shuffle
TTITLE6=Whiskey Man
TTITLE7=Bad Woman Blues
TTITLE8=Hear My Train A Comin'
TTITLE9=To The Station (Unplugged)
EXTD=
EXTT0=
EXTT1=
EXTT2=
EXTT3=
EXTT4=
EXTT5=
EXTT6=
EXTT7=
EXTT8=
EXTT9=
PLAYORDER=
